<?xml version="1.0" encoding="utf-8"?>
<!-- Generator: Adobe Illustrator 16.0.0, SVG Export Plug-In . SVG Version: 6.00 Build 0)  -->
<!DOCTYPE svg PUBLIC "-//W3C//DTD SVG 1.1//EN" "http://www.w3.org/Graphics/SVG/1.1/DTD/svg11.dtd">
<svg version="1.1" id="Calque_1" xmlns="http://www.w3.org/2000/svg" xmlns:xlink="http://www.w3.org/1999/xlink" x="0px" y="0px"
	 width="1900px" height="500px" viewBox="0 0 1900 500" enable-background="new 0 0 1900 500" xml:space="preserve">
<g>
	<path fill="#FFFFFF" d="M973.547,236.389c-0.027-1.501-0.055-2.919-0.055-4.292c0-1.073-0.871-1.945-1.945-1.945
		c-8.324,0-14.66-2.391-19.942-7.527c-0.755-0.735-1.958-0.733-2.714,0c-5.281,5.137-11.617,7.527-19.939,7.527
		c-1.075,0-1.947,0.872-1.947,1.945c0,1.373-0.026,2.791-0.054,4.293c-0.269,13.969-0.634,33.102,22.659,41.175
		c0.207,0.073,0.422,0.108,0.639,0.108c0.215,0,0.43-0.035,0.637-0.108C974.179,269.491,973.814,250.358,973.547,236.389z
		 M950.248,273.661c-19.977-7.258-19.676-23.153-19.407-37.197c0.017-0.843,0.03-1.658,0.042-2.459
		c7.795-0.33,14.028-2.691,19.365-7.34c5.336,4.648,11.571,7.01,19.365,7.34c0.012,0.799,0.027,1.614,0.043,2.458
		C969.924,250.506,970.227,266.403,950.248,273.661z"/>
	<path fill="#FFFFFF" d="M956.949,243.114l-9.395,9.39l-4.006-4.007c-0.762-0.762-1.993-0.762-2.754,0
		c-0.76,0.76-0.76,1.992,0,2.752l5.386,5.383c0.379,0.382,0.878,0.571,1.374,0.571c0.5,0,0.998-0.189,1.377-0.571l10.77-10.769
		c0.761-0.759,0.761-1.992,0-2.749C958.941,242.352,957.709,242.352,956.949,243.114z"/>
</g>
</svg>
