<?xml version="1.0" encoding="utf-8"?>
<!-- Generator: Adobe Illustrator 16.0.0, SVG Export Plug-In . SVG Version: 6.00 Build 0)  -->
<!DOCTYPE svg PUBLIC "-//W3C//DTD SVG 1.1//EN" "http://www.w3.org/Graphics/SVG/1.1/DTD/svg11.dtd">
<svg version="1.1" id="Calque_1" xmlns="http://www.w3.org/2000/svg" xmlns:xlink="http://www.w3.org/1999/xlink" x="0px" y="0px"
	 width="1900px" height="500px" viewBox="0 0 1900 500" enable-background="new 0 0 1900 500" xml:space="preserve">
<g>
	<g>
		<path fill="#FFFFFF" d="M967.113,251.834c0-17.542-15.272-31.421-15.924-32.003c-0.738-0.661-1.857-0.663-2.598,0
			c-0.65,0.582-15.926,14.461-15.926,32.003c0,4.236,1.83,8.559,5.021,11.863c2.857,2.957,6.441,4.773,10.256,5.238v9.631
			c0,1.076,0.872,1.948,1.947,1.948c1.076,0,1.947-0.872,1.947-1.948v-9.631c3.813-0.465,7.398-2.281,10.255-5.238
			C965.283,260.393,967.113,256.07,967.113,251.834L967.113,251.834z M939.947,238.08l7.996,7.997v8.138l-10.238-10.238
			C938.289,241.912,939.062,239.938,939.947,238.08L939.947,238.08z M951.838,254.218v-8.14l7.997-7.998
			c0.885,1.859,1.658,3.837,2.241,5.901L951.838,254.218z M957.924,234.492c-0.03,0.027-0.062,0.054-0.093,0.084l-5.993,5.992
			v-14.446C953.626,228.164,955.887,231.038,957.924,234.492L957.924,234.492z M947.943,226.122v14.445l-5.992-5.991
			c-0.03-0.03-0.062-0.059-0.094-0.087C943.895,231.036,946.154,228.164,947.943,226.122L947.943,226.122z M936.562,251.834
			c0-1.107,0.076-2.202,0.209-3.283l11.172,11.175v5.278C941.312,263.938,936.562,257.576,936.562,251.834L936.562,251.834z
			 M951.838,265.004v-5.277l11.172-11.17c0.133,1.077,0.209,2.17,0.209,3.277C963.218,257.576,958.468,263.938,951.838,265.004
			L951.838,265.004z M951.838,265.004"/>
	</g>
</g>
</svg>
