<?xml version="1.0" encoding="utf-8"?>
<!-- Generator: Adobe Illustrator 16.0.0, SVG Export Plug-In . SVG Version: 6.00 Build 0)  -->
<!DOCTYPE svg PUBLIC "-//W3C//DTD SVG 1.1//EN" "http://www.w3.org/Graphics/SVG/1.1/DTD/svg11.dtd">
<svg version="1.1" id="Calque_1" xmlns="http://www.w3.org/2000/svg" xmlns:xlink="http://www.w3.org/1999/xlink" x="0px" y="0px"
	 width="1190.55px" height="841.89px" viewBox="0 0 1190.55 841.89" enable-background="new 0 0 1190.55 841.89"
	 xml:space="preserve">
<g>
	<linearGradient id="SVGID_1_" gradientUnits="userSpaceOnUse" x1="570.5498" y1="413.6914" x2="577.4873" y2="413.6914">
		<stop  offset="0" style="stop-color:#313E83"/>
		<stop  offset="0.3168" style="stop-color:#303D80"/>
		<stop  offset="0.5521" style="stop-color:#2E3A7A"/>
		<stop  offset="0.7609" style="stop-color:#2B356E"/>
		<stop  offset="0.9534" style="stop-color:#262C5E"/>
		<stop  offset="1" style="stop-color:#242A5A"/>
	</linearGradient>
	<path fill="url(#SVGID_1_)" d="M575.218,411.974c-0.453-2.074-0.713-5.576-0.713-6.871h-0.713c0,1.295-0.391,4.797-0.844,6.871
		l-2.398,10.307h6.938L575.218,411.974z"/>
	<linearGradient id="SVGID_2_" gradientUnits="userSpaceOnUse" x1="528.8823" y1="420.2568" x2="661.999" y2="420.2568">
		<stop  offset="0" style="stop-color:#313E83"/>
		<stop  offset="0.3168" style="stop-color:#303D80"/>
		<stop  offset="0.5521" style="stop-color:#2E3A7A"/>
		<stop  offset="0.7609" style="stop-color:#2B356E"/>
		<stop  offset="0.9534" style="stop-color:#262C5E"/>
		<stop  offset="1" style="stop-color:#242A5A"/>
	</linearGradient>
	<path fill="url(#SVGID_2_)" d="M565.3,394.989h18.021l12.121,47.518h-13.613l-2.139-10.113h-11.539l-2.268,10.113h-13.227
		L565.3,394.989z M597.972,455.155c7.41-1.033,14.432-2.695,20.883-4.85c-2.529,0.506-5.113,0.947-7.744,1.316
		c-21.021,2.928-40.375,0.553-53.146-5.506c11.826,3.182,26.979,3.936,43.314,1.66c8.838-1.232,17.189-3.236,24.707-5.818
		c-2.119-1.002-3.605-2.891-5.131-6.062l-4.863-10.244h-3.111v16.855h-12.965v-47.518h18.863c9.66,0,16.271,3.889,16.271,14.262
		c0,6.223-2.592,10.502-6.936,12.965l4.02,7.455c0.648,1.166,0.842,1.426,2.203,1.426c0.584,0,1.102-0.064,1.49-0.129v7.061
		c16.998-7.84,27.566-18.869,26.023-29.947c-2.432-17.439-33.123-27.572-68.551-22.631c-8.076,1.125-15.701,2.938-22.635,5.271
		c-26.1,7.857-43.768,23.686-41.604,39.225C531.692,448.808,562.544,460.093,597.972,455.155"/>
	<linearGradient id="SVGID_3_" gradientUnits="userSpaceOnUse" x1="612.8799" y1="410.4502" x2="621.8252" y2="410.4502">
		<stop  offset="0" style="stop-color:#313E83"/>
		<stop  offset="0.3168" style="stop-color:#303D80"/>
		<stop  offset="0.5521" style="stop-color:#2E3A7A"/>
		<stop  offset="0.7609" style="stop-color:#2B356E"/>
		<stop  offset="0.9534" style="stop-color:#262C5E"/>
		<stop  offset="1" style="stop-color:#242A5A"/>
	</linearGradient>
	<path fill="url(#SVGID_3_)" d="M617.872,405.167h-4.992v10.566h4.539c2.98,0,4.406-1.75,4.406-5.768
		C621.825,406.788,620.724,405.167,617.872,405.167"/>
</g>
</svg>
