<?xml version="1.0" encoding="utf-8"?>
<!-- Generator: Adobe Illustrator 16.0.0, SVG Export Plug-In . SVG Version: 6.00 Build 0)  -->
<!DOCTYPE svg PUBLIC "-//W3C//DTD SVG 1.1//EN" "http://www.w3.org/Graphics/SVG/1.1/DTD/svg11.dtd">
<svg version="1.1" id="Calque_1" xmlns="http://www.w3.org/2000/svg" xmlns:xlink="http://www.w3.org/1999/xlink" x="0px" y="0px"
	 width="841.89px" height="595.28px" viewBox="0 0 841.89 595.28" enable-background="new 0 0 841.89 595.28" xml:space="preserve">
<path fill="#FFFFFF" enable-background="new    " d="M450.137,318.915c-5.943,0-11.547-2.089-15.778-5.883
	c-4.326-3.878-6.708-9.062-6.708-14.597c0-5.533,2.382-10.717,6.708-14.596c4.231-3.794,9.835-5.883,15.778-5.883v6.156
	c-7.799,0-14.338,4.821-15.949,11.244h11.935v6.157h-11.935c1.611,6.423,8.15,11.243,15.949,11.243V318.915z M415.471,318.915
	c-5.944,0-11.548-2.089-15.779-5.883c-4.326-3.878-6.707-9.062-6.707-14.597c0-5.533,2.381-10.717,6.707-14.596
	c4.231-3.794,9.835-5.883,15.779-5.883v6.156c-9.004,0-16.33,6.426-16.33,14.322c0,7.897,7.326,14.322,16.33,14.322V318.915z"/>
</svg>
