<?xml version="1.0" encoding="utf-8"?>
<!-- Generator: Adobe Illustrator 16.0.0, SVG Export Plug-In . SVG Version: 6.00 Build 0)  -->
<!DOCTYPE svg PUBLIC "-//W3C//DTD SVG 1.1//EN" "http://www.w3.org/Graphics/SVG/1.1/DTD/svg11.dtd">
<svg version="1.1" id="Calque_1" xmlns="http://www.w3.org/2000/svg" xmlns:xlink="http://www.w3.org/1999/xlink" x="0px" y="0px"
	 width="841.89px" height="595.28px" viewBox="0 0 841.89 595.28" enable-background="new 0 0 841.89 595.28" xml:space="preserve">
<g>
	<linearGradient id="SVGID_1_" gradientUnits="userSpaceOnUse" x1="396.5586" y1="291.8584" x2="403.4912" y2="291.8584">
		<stop  offset="0" style="stop-color:#313E83"/>
		<stop  offset="0.3168" style="stop-color:#303D80"/>
		<stop  offset="0.5521" style="stop-color:#2E3A7A"/>
		<stop  offset="0.7609" style="stop-color:#2B356E"/>
		<stop  offset="0.9534" style="stop-color:#262C5E"/>
		<stop  offset="1" style="stop-color:#242A5A"/>
	</linearGradient>
	<path fill="url(#SVGID_1_)" d="M400.512,283.273h-0.713c0,1.297-0.39,4.795-0.843,6.868l-2.397,10.302h6.933l-2.269-10.302
		C400.77,288.068,400.512,284.57,400.512,283.273z"/>
	<linearGradient id="SVGID_2_" gradientUnits="userSpaceOnUse" x1="415.0527" y1="281.8662" x2="417.1074" y2="281.8662">
		<stop  offset="0" style="stop-color:#313E83"/>
		<stop  offset="0.3168" style="stop-color:#303D80"/>
		<stop  offset="0.5521" style="stop-color:#2E3A7A"/>
		<stop  offset="0.7609" style="stop-color:#2B356E"/>
		<stop  offset="0.9534" style="stop-color:#262C5E"/>
		<stop  offset="1" style="stop-color:#242A5A"/>
	</linearGradient>
	<path fill="url(#SVGID_2_)" d="M417.107,281.7c0-1.623-0.348-1.938-0.944-1.938c-0.332,0-0.646,0.116-1.11,0.431v3.58
		c0.447,0.166,0.779,0.198,1.012,0.198C416.809,283.97,417.107,283.753,417.107,281.7z"/>
	<linearGradient id="SVGID_3_" gradientUnits="userSpaceOnUse" x1="354.9126" y1="298.4194" x2="487.9707" y2="298.4194">
		<stop  offset="0" style="stop-color:#313E83"/>
		<stop  offset="0.3168" style="stop-color:#303D80"/>
		<stop  offset="0.5521" style="stop-color:#2E3A7A"/>
		<stop  offset="0.7609" style="stop-color:#2B356E"/>
		<stop  offset="0.9534" style="stop-color:#262C5E"/>
		<stop  offset="1" style="stop-color:#242A5A"/>
	</linearGradient>
	<path fill="url(#SVGID_3_)" d="M487.822,286.249c-2.432-17.429-33.109-27.558-68.523-22.623
		c-8.072,1.125-15.693,2.939-22.621,5.271c-26.091,7.854-43.75,23.679-41.586,39.209c2.629,18.854,33.467,30.133,68.881,25.197
		c7.406-1.033,14.426-2.695,20.871-4.848c-2.527,0.506-5.107,0.947-7.74,1.315c-21.012,2.927-40.356,0.554-53.123-5.504
		c11.82,3.183,26.967,3.935,43.297,1.659c8.836-1.231,17.182-3.233,24.695-5.815c-2.121-1.002-3.605-2.889-5.135-6.062
		l-4.857-10.236h-3.109v16.846h-12.959V288.36h12.959v5.539h4.535c2.92,0,4.338-1.693,4.395-5.539h13.203
		c-0.25,5.712-2.789,9.684-6.908,12.019l4.018,7.451c0.648,1.166,0.844,1.424,2.203,1.424c0.582,0,1.102-0.063,1.49-0.129v7.054
		C478.795,308.344,489.365,297.323,487.822,286.249z M407.831,320.658l-2.137-10.109h-11.533l-2.269,10.107h-13.215l12.633-47.489
		h18.012l2.748,10.77v-10.34l2.982-0.282v4.623h0.166c0.746-0.562,1.326-0.694,1.939-0.694c1.906,0,3.132,1.144,3.132,4.508
		c0,3.297-1.673,4.623-3.38,4.623c-0.746,0-1.227-0.133-1.889-0.498l-0.133,0.332h-2.237l8.788,34.45H407.831z M425.912,286.179
		c-0.434,0.128-0.918,0.193-1.445,0.193c-0.393,0-0.73-0.022-1.148-0.095c-0.496-0.085-1.109-0.239-2.082-0.519l0.514-2.42
		c0.676,0.185,1.174,0.313,1.568,0.412c0.846,0.207,1.172,0.25,1.432,0.25c0.299,0,0.447-0.064,0.447-0.396
		c0-0.281-0.066-0.332-0.713-0.547l-1.166-0.389l-0.178-0.058c-1.094-0.364-1.772-1.077-1.772-2.286c0-1.44,0.804-2.356,1.948-2.789
		c0.504-0.188,1.062-0.293,1.664-0.293c0.285,0,0.578,0.01,0.932,0.043c0.467,0.045,1.039,0.129,1.869,0.289l-0.514,2.436
		c-0.59-0.12-1.02-0.203-1.355-0.264c-0.639-0.111-0.932-0.136-1.246-0.136c-0.35,0-0.447,0.101-0.447,0.365
		c0,0.215,0.082,0.265,0.68,0.464l1.016,0.338l0.328,0.109c1.109,0.382,1.805,0.994,1.805,2.47
		C428.047,284.827,427.223,285.79,425.912,286.179z M433.268,286.374c-2.586,0-4.275-1.459-4.275-4.558
		c0-3.166,1.74-4.573,4.324-4.573c2.402,0,4.26,1.274,4.26,4.573C437.576,284.798,435.969,286.374,433.268,286.374z
		 M442.053,283.339v2.867h-2.982v-2.867v-9.742l2.982-0.282V283.339z M451.879,286.208h-2.832v-0.729h-0.15
		c-0.527,0.294-0.926,0.499-1.289,0.642c-0.457,0.178-0.859,0.254-1.395,0.254c-1.459,0-2.205-0.861-2.205-2.586v-0.438v-5.941
		h2.984v5.883c0,0.215,0.098,0.363,0.396,0.363c0.48,0,1.061-0.066,1.508-0.33v-5.916h2.982V286.208L451.879,286.208z
		 M457.068,286.374c-1.855,0-2.602-0.912-2.602-2.885v-3.529h-1.111v-2.551h1.111v-1.725l0.809-0.13l2.189-0.351v2.055v0.148h0.145
		h2.145v2.553h-0.334h-1.953v3.197c0,0.299,0.066,0.397,0.348,0.397s0.613-0.101,1.873-0.548l0.463,2.586
		C458.379,286.307,457.682,286.374,457.068,286.374z"/>
	<linearGradient id="SVGID_4_" gradientUnits="userSpaceOnUse" x1="432.1738" y1="281.8076" x2="434.3945" y2="281.8076">
		<stop  offset="0" style="stop-color:#313E83"/>
		<stop  offset="0.3168" style="stop-color:#303D80"/>
		<stop  offset="0.5521" style="stop-color:#2E3A7A"/>
		<stop  offset="0.7609" style="stop-color:#2B356E"/>
		<stop  offset="0.9534" style="stop-color:#262C5E"/>
		<stop  offset="1" style="stop-color:#242A5A"/>
	</linearGradient>
	<path fill="url(#SVGID_4_)" d="M433.285,279.596c-0.779,0-1.111,0.215-1.111,2.221c0,1.938,0.266,2.203,1.111,2.203
		c0.811,0,1.109-0.231,1.109-2.188C434.395,279.811,434.08,279.596,433.285,279.596z"/>
</g>
</svg>
