<?xml version="1.0" encoding="utf-8"?>
<!-- Generator: Adobe Illustrator 16.0.0, SVG Export Plug-In . SVG Version: 6.00 Build 0)  -->
<!DOCTYPE svg PUBLIC "-//W3C//DTD SVG 1.1//EN" "http://www.w3.org/Graphics/SVG/1.1/DTD/svg11.dtd">
<svg version="1.1" id="Calque_1" xmlns="http://www.w3.org/2000/svg" xmlns:xlink="http://www.w3.org/1999/xlink" x="0px" y="0px"
	 width="1190.55px" height="841.89px" viewBox="0 0 1190.55 841.89" enable-background="new 0 0 1190.55 841.89"
	 xml:space="preserve">
<g>
	<path fill="#FFFFFF" d="M608.214,405.15h-4.99v10.567h4.537c2.982,0,4.408-1.751,4.408-5.769
		C612.169,406.772,611.067,405.15,608.214,405.15"/>
	<path fill="#FFFFFF" d="M567.181,394.973h13.354v47.519h-13.354V394.973z M597.974,455.14c7.412-1.033,14.432-2.695,20.885-4.85
		c-2.531,0.506-5.113,0.947-7.746,1.316c-21.021,2.93-40.375,0.553-53.148-5.506c11.826,3.182,26.98,3.936,43.316,1.66
		c7.834-1.092,15.281-2.789,22.107-4.961c-0.666,0.049-1.324,0.08-1.885,0.08c-5.379,0-7.777-1.75-10.307-7l-4.863-10.244h-3.111
		v16.855h-12.965v-47.519h18.865c9.66,0,16.271,3.892,16.271,14.262c0,6.224-2.594,10.502-6.938,12.966l4.02,7.455
		c0.648,1.166,0.844,1.426,2.207,1.426c0.582,0,1.102-0.064,1.49-0.129v10.928c22.51-7.777,37.498-20.763,35.68-33.815
		c-2.43-17.438-33.123-27.57-68.551-22.631c-8.078,1.125-15.701,2.94-22.633,5.271c-26.104,7.857-43.771,23.688-41.607,39.226
		C531.694,448.792,562.546,460.077,597.974,455.14"/>
</g>
</svg>
