<?xml version="1.0" encoding="utf-8"?>
<!-- Generator: Adobe Illustrator 16.0.0, SVG Export Plug-In . SVG Version: 6.00 Build 0)  -->
<!DOCTYPE svg PUBLIC "-//W3C//DTD SVG 1.1//EN" "http://www.w3.org/Graphics/SVG/1.1/DTD/svg11.dtd">
<svg version="1.1" id="Calque_1" xmlns="http://www.w3.org/2000/svg" xmlns:xlink="http://www.w3.org/1999/xlink" x="0px" y="0px"
	 width="1900px" height="500px" viewBox="0 0 1900 500" enable-background="new 0 0 1900 500" xml:space="preserve">
<path fill="#FFFFFF" d="M977.168,259.799c0.109,0.084,0.174,0.217,0.174,0.357c0,0.139-0.066,0.271-0.174,0.354l-11.029,8.48
	c-0.162,0.123-0.385,0.125-0.545,0.002c-0.162-0.121-0.221-0.336-0.146-0.525l1.836-4.65c-8.35-0.314-13.086-3.297-16.398-6.756
	c1.232-1.406,2.256-2.834,3.188-4.133c0.463-0.646,0.908-1.262,1.354-1.852c2.512,2.953,5.57,5.064,11.832,5.35l-1.811-4.584
	c-0.074-0.188-0.014-0.402,0.146-0.523c0.082-0.061,0.176-0.092,0.271-0.092s0.193,0.031,0.273,0.094L977.168,259.799z
	 M933.715,248.35c0.082,0.062,0.178,0.094,0.275,0.094c0.094,0,0.191-0.031,0.271-0.092c0.16-0.121,0.221-0.336,0.146-0.525
	l-1.797-4.551c6.234,0.396,9.301,2.549,11.818,5.518c0.439-0.582,0.879-1.188,1.334-1.824c0.938-1.309,1.967-2.742,3.209-4.16
	c-3.318-3.475-8.057-6.49-16.412-6.928l1.848-4.678c0.074-0.189,0.014-0.402-0.146-0.525c-0.162-0.123-0.385-0.121-0.545,0.002
	l-11.029,8.479c-0.111,0.084-0.174,0.217-0.174,0.357c0,0.139,0.064,0.271,0.174,0.355L933.715,248.35z M952.918,252.102
	c3.293-4.594,5.953-8.291,14.326-8.826l-1.799,4.551c-0.072,0.189-0.014,0.404,0.148,0.527c0.08,0.059,0.176,0.09,0.27,0.09
	c0.098,0,0.195-0.031,0.275-0.092l11.029-8.48c0.109-0.084,0.174-0.217,0.174-0.355c0-0.141-0.066-0.273-0.174-0.357l-11.029-8.479
	c-0.162-0.123-0.385-0.125-0.545-0.002c-0.162,0.123-0.221,0.336-0.146,0.525l1.848,4.678c-12.285,0.643-16.754,6.863-20.379,11.914
	c-3.283,4.582-5.918,8.248-14.318,8.631l1.811-4.584c0.074-0.188,0.014-0.402-0.146-0.523c-0.08-0.061-0.176-0.092-0.271-0.092
	s-0.193,0.031-0.275,0.094l-11.027,8.479c-0.111,0.084-0.174,0.217-0.174,0.357c0,0.139,0.064,0.271,0.174,0.354l11.027,8.48
	c0.162,0.123,0.385,0.125,0.547,0.002c0.16-0.121,0.221-0.336,0.146-0.525l-1.838-4.65
	C944.842,263.355,949.307,257.137,952.918,252.102z"/>
</svg>
