<?xml version="1.0" encoding="utf-8"?>
<!-- Generator: Adobe Illustrator 16.0.0, SVG Export Plug-In . SVG Version: 6.00 Build 0)  -->
<!DOCTYPE svg PUBLIC "-//W3C//DTD SVG 1.1//EN" "http://www.w3.org/Graphics/SVG/1.1/DTD/svg11.dtd">
<svg version="1.1" id="Calque_1" xmlns="http://www.w3.org/2000/svg" xmlns:xlink="http://www.w3.org/1999/xlink" x="0px" y="0px"
	 width="841.89px" height="595.28px" viewBox="0 0 841.89 595.28" enable-background="new 0 0 841.89 595.28" xml:space="preserve">
<g>
	<g>
		<g>
			<g>
				<path fill="#FFFFFF" d="M427.81,289.841c-1.683-1.683-4.057-2.77-6.629-2.77s-4.946,1.039-6.629,2.77
					c-1.681,1.682-2.769,4.057-2.769,6.628c0,2.572,1.088,4.947,2.769,6.628c1.683,1.684,4.057,2.771,6.629,2.771
					s4.946-1.039,6.629-2.771c1.682-1.681,2.769-4.056,2.769-6.628C430.578,293.897,429.541,291.522,427.81,289.841z
					 M426.028,301.316c-1.237,1.236-2.968,1.979-4.848,1.979c-1.879,0-3.61-0.742-4.847-1.979s-1.979-2.968-1.979-4.848
					s0.742-3.61,1.979-4.847c1.236-1.237,2.968-1.979,4.847-1.979c1.88,0,3.61,0.741,4.848,1.979
					c1.237,1.236,1.978,2.967,1.978,4.847S427.266,300.08,426.028,301.316z"/>
			</g>
		</g>
		<g>
			<g>
				<path fill="#FFFFFF" d="M438.592,295.184h-3.809c-0.691,0-1.285,0.593-1.285,1.285c0,0.693,0.594,1.286,1.285,1.286h3.809
					c0.692,0,1.286-0.593,1.286-1.286C439.878,295.776,439.284,295.184,438.592,295.184z"/>
			</g>
		</g>
		<g>
			<g>
				<path fill="#FFFFFF" d="M421.181,308.785c-0.692,0-1.286,0.595-1.286,1.286v3.809c0,0.693,0.594,1.286,1.286,1.286
					c0.693,0,1.286-0.593,1.286-1.286v-3.809C422.467,309.38,421.874,308.785,421.181,308.785z"/>
			</g>
		</g>
		<g>
			<g>
				<path fill="#FFFFFF" d="M434.388,307.896l-2.721-2.721c-0.445-0.494-1.285-0.494-1.78,0c-0.494,0.494-0.494,1.285,0,1.781
					l2.721,2.719c0.495,0.496,1.285,0.496,1.78,0C434.882,309.182,434.882,308.39,434.388,307.896z"/>
			</g>
		</g>
		<g>
			<g>
				<path fill="#FFFFFF" d="M421.181,277.772c-0.692,0-1.286,0.594-1.286,1.286v3.808c0,0.693,0.594,1.286,1.286,1.286
					c0.693,0,1.286-0.593,1.286-1.286v-3.808C422.467,278.366,421.874,277.772,421.181,277.772z"/>
			</g>
		</g>
		<g>
			<g>
				<path fill="#FFFFFF" d="M434.438,283.263c-0.495-0.496-1.287-0.496-1.781,0l-2.721,2.72c-0.494,0.495-0.494,1.287,0,1.782
					c0.446,0.493,1.286,0.493,1.78,0l2.722-2.723C434.931,284.549,434.931,283.757,434.438,283.263z"/>
			</g>
		</g>
		<g>
			<g>
				<path fill="#FFFFFF" d="M407.578,295.184h-3.809c-0.692,0-1.285,0.593-1.285,1.285c0,0.693,0.543,1.286,1.285,1.286h3.809
					c0.692,0,1.287-0.593,1.287-1.286C408.865,295.776,408.271,295.184,407.578,295.184z"/>
			</g>
		</g>
		<g>
			<g>
				<path fill="#FFFFFF" d="M412.426,305.175c-0.445-0.494-1.285-0.494-1.78,0l-2.721,2.721c-0.494,0.494-0.494,1.286,0,1.779
					c0.495,0.496,1.285,0.496,1.78,0l2.721-2.719C412.92,306.46,412.92,305.669,412.426,305.175z"/>
			</g>
		</g>
		<g>
			<g>
				<path fill="#FFFFFF" d="M412.426,285.982l-2.721-2.72c-0.495-0.496-1.285-0.496-1.78,0c-0.494,0.494-0.494,1.286,0,1.779
					l2.721,2.723c0.495,0.493,1.285,0.493,1.78,0C412.92,287.27,412.92,286.478,412.426,285.982z"/>
			</g>
		</g>
	</g>
	<g>
		<path fill="#FFFFFF" d="M432.391,323.966c1.404,0,2.096-0.676,2.096-2.062v-7.848h2.391v6.4v1.396c0,2.945-1.54,4.192-4.486,4.192
			c-2.944,0-4.486-1.247-4.486-4.192v-7.796h2.391v7.848C430.295,323.307,430.988,323.966,432.391,323.966z"/>
		<path fill="#FFFFFF" d="M448.22,314.056l-2.737,11.78h-4.418l-2.737-11.78h2.514l2.044,9.701h0.779l2.044-9.701H448.22z"/>
	</g>
	<path fill="#FFFFFF" d="M426.395,325.698c-1.622,0.29-3.288,0.451-4.992,0.451c-15.578,0-28.252-12.674-28.252-28.252
		s12.674-28.252,28.252-28.252s28.252,12.567,28.252,28.146c0,5.221-1.431,10.209-3.91,14.209h2.486
		c2.287-4,3.588-9.035,3.588-14.209c0-16.771-13.645-30.362-30.416-30.362s-30.416,13.671-30.416,30.442
		s13.645,30.429,30.416,30.429c2.45,0,4.832-0.292,7.115-0.842C427.645,327.037,426.927,326.452,426.395,325.698z"/>
	<g>
		<path fill="#FFFFFF" d="M432.391,323.966c1.404,0,2.096-0.676,2.096-2.062v-7.848h2.391v6.4v1.396c0,2.945-1.54,4.192-4.486,4.192
			c-2.944,0-4.486-1.247-4.486-4.192v-7.796h2.391v7.848C430.295,323.307,430.988,323.966,432.391,323.966z"/>
		<path fill="#FFFFFF" d="M448.22,314.056l-2.737,11.78h-4.418l-2.737-11.78h2.514l2.044,9.701h0.779l2.044-9.701H448.22z"/>
	</g>
</g>
</svg>
