<?xml version="1.0" encoding="utf-8"?>
<!-- Generator: Adobe Illustrator 16.0.0, SVG Export Plug-In . SVG Version: 6.00 Build 0)  -->
<!DOCTYPE svg PUBLIC "-//W3C//DTD SVG 1.1//EN" "http://www.w3.org/Graphics/SVG/1.1/DTD/svg11.dtd">
<svg version="1.1" id="Calque_1" xmlns="http://www.w3.org/2000/svg" xmlns:xlink="http://www.w3.org/1999/xlink" x="0px" y="0px"
	 width="841.89px" height="595.28px" viewBox="0 0 841.89 595.28" enable-background="new 0 0 841.89 595.28" xml:space="preserve">
<g>
	<path fill="#FFFFFF" d="M421.131,328.727c-16.875,0-30.604-13.729-30.604-30.603c0-16.875,13.729-30.604,30.604-30.604
		c16.874,0,30.603,13.729,30.603,30.604C451.733,314.998,438.005,328.727,421.131,328.727z M421.131,270.021
		c-15.496,0-28.104,12.607-28.104,28.104s12.607,28.103,28.104,28.103s28.103-12.606,28.103-28.103S436.627,270.021,421.131,270.021
		z"/>
	<g>
		<path fill="#FFFFFF" d="M419.725,294.873c-1.803,1.805-2.765,3.606-2.765,5.531c0,1.922,0.962,3.847,2.765,5.769
			c0.241,0.241,0.481,0.361,0.842,0.361s0.601-0.121,0.842-0.361c0.48-0.48,0.48-1.201,0-1.682
			c-1.323-1.443-2.044-2.767-2.044-4.087c0-1.323,0.721-2.646,2.044-3.847c1.802-1.685,2.764-3.606,2.764-5.53
			c0-1.923-0.841-3.966-2.764-5.77c-0.481-0.48-1.202-0.48-1.684,0c-0.481,0.481-0.481,1.202,0,1.683
			c1.322,1.443,2.045,2.765,2.045,4.087S421.047,293.671,419.725,294.873z"/>
		<path fill="#FFFFFF" d="M430.183,300.404c0,1.922,0.962,3.847,2.765,5.769c0.241,0.241,0.481,0.361,0.841,0.361
			c0.242,0,0.603-0.121,0.722-0.361c0.48-0.48,0.48-1.201,0-1.682c-1.321-1.443-2.043-2.767-2.043-4.087
			c0-1.323,0.722-2.646,2.043-3.847c1.925-1.685,2.886-3.606,2.886-5.53c0-2.043-0.842-3.966-2.765-5.77
			c-0.482-0.48-1.202-0.48-1.684,0c-0.48,0.481-0.48,1.202,0,1.683c1.322,1.441,2.043,2.765,2.043,4.087s-0.721,2.524-2.043,3.846
			C431.145,296.678,430.183,298.479,430.183,300.404z"/>
		<path fill="#FFFFFF" d="M404.94,300.404c0,1.922,0.96,3.847,2.764,5.769c0.24,0.241,0.482,0.361,0.842,0.361
			c0.24,0,0.601-0.121,0.721-0.361c0.48-0.48,0.48-1.201,0-1.682c-1.322-1.443-2.043-2.767-2.043-4.087
			c0-1.323,0.721-2.646,2.043-3.847c1.924-1.685,2.885-3.606,2.885-5.53c0-2.043-0.841-3.966-2.765-5.77
			c-0.48-0.48-1.2-0.48-1.683,0c-0.48,0.481-0.48,1.202,0,1.683c1.322,1.441,2.043,2.765,2.043,4.087s-0.721,2.524-2.043,3.846
			C405.9,296.678,404.94,298.479,404.94,300.404z"/>
	</g>
	<path fill="#FFFFFF" d="M438.667,313h-35c-0.828,0-1.5-0.672-1.5-1.5s0.672-1.5,1.5-1.5h35c0.828,0,1.5,0.672,1.5,1.5
		S439.495,313,438.667,313z"/>
</g>
</svg>
