<?xml version="1.0" encoding="utf-8"?>
<!-- Generator: Adobe Illustrator 16.0.0, SVG Export Plug-In . SVG Version: 6.00 Build 0)  -->
<!DOCTYPE svg PUBLIC "-//W3C//DTD SVG 1.1//EN" "http://www.w3.org/Graphics/SVG/1.1/DTD/svg11.dtd">
<svg version="1.1" id="Calque_1" xmlns="http://www.w3.org/2000/svg" xmlns:xlink="http://www.w3.org/1999/xlink" x="0px" y="0px"
	 width="1190.55px" height="841.89px" viewBox="0 0 1190.55 841.89" enable-background="new 0 0 1190.55 841.89"
	 xml:space="preserve">
<g>
	<g>
		<linearGradient id="SVGID_1_" gradientUnits="userSpaceOnUse" x1="528.8818" y1="420.0513" x2="654.3506" y2="420.0513">
			<stop  offset="0" style="stop-color:#313E83"/>
			<stop  offset="0.3168" style="stop-color:#303D80"/>
			<stop  offset="0.5521" style="stop-color:#2E3A7A"/>
			<stop  offset="0.7609" style="stop-color:#2B356E"/>
			<stop  offset="0.9534" style="stop-color:#262C5E"/>
			<stop  offset="1" style="stop-color:#242A5A"/>
		</linearGradient>
		<path fill="url(#SVGID_1_)" d="M625.866,430.314c-7.502,0-10.188-4.301-10.188-12.195c0-9.09,3.881-12.164,10.027-12.164
			c1.748,0,3.428,0.195,6.955,1.326l-1.359,5.791c-2.943-1.133-4.01-1.455-5.174-1.455c-2.459,0-3.463,0.582-3.463,6.436
			c0,6.115,1.004,6.602,3.463,6.602c1.26,0,2.684-0.486,5.66-1.877l1.295,5.791C629.622,429.99,627.745,430.314,625.866,430.314
			 M597.206,429.99v-23.711h15.205v5.498h-8.543v3.525h7.928v5.469h-7.928v3.752h8.736l0.322,5.467H597.206z M594.067,411.777
			h-5.109v18.213h-6.699v-18.213h-5.078v-5.498h16.887V411.777z M569.675,429.99h-7.893l-6.404-23.711h6.793l3.105,13.943
			c0.193,0.84,0.389,2.521,0.389,3.201h0.354c0-0.68,0.162-2.361,0.357-3.201l3.105-13.943h6.6L569.675,429.99z M636.317,406.279
			h6.666v8.703h5.434v-8.703h5.934c-4.506-15.133-32.436-23.662-64.449-19.199c-7.648,1.064-14.871,2.783-21.439,4.992
			c-11.322,3.41-20.967,8.402-27.902,14.227v14.473c0,3.365,0.422,3.85,2.814,3.85s2.977-0.582,2.977-3.85v-14.492h6.404v14.492
			c0,6.633-3.072,9.543-9.445,9.543c-5.338,0-9.414-1.779-9.414-9.543v-7.527c-3.803,5.105-5.6,10.564-4.844,15.986
			c2.492,17.865,31.719,28.557,65.275,23.877c7.021-0.979,13.672-2.551,19.781-4.592c-2.395,0.479-4.84,0.898-7.336,1.246
			c-19.912,2.775-38.242,0.525-50.344-5.217c11.205,3.016,25.555,3.73,41.031,1.572c18.219-2.539,34.24-8.535,44.719-16.127h-5.861
			V406.279z"/>
		<linearGradient id="SVGID_2_" gradientUnits="userSpaceOnUse" x1="642.9814" y1="424.9863" x2="648.415" y2="424.9863">
			<stop  offset="0" style="stop-color:#313E83"/>
			<stop  offset="0.3168" style="stop-color:#303D80"/>
			<stop  offset="0.5521" style="stop-color:#2E3A7A"/>
			<stop  offset="0.7609" style="stop-color:#2B356E"/>
			<stop  offset="0.9534" style="stop-color:#262C5E"/>
			<stop  offset="1" style="stop-color:#242A5A"/>
		</linearGradient>
		<path fill="url(#SVGID_2_)" d="M642.981,420.576v8.82c2.049-1.543,3.869-3.148,5.434-4.803v-4.018H642.981z"/>
		<linearGradient id="SVGID_3_" gradientUnits="userSpaceOnUse" x1="654.7412" y1="413.4531" x2="659.0342" y2="413.4531">
			<stop  offset="0" style="stop-color:#313E83"/>
			<stop  offset="0.3168" style="stop-color:#303D80"/>
			<stop  offset="0.5521" style="stop-color:#2E3A7A"/>
			<stop  offset="0.7609" style="stop-color:#2B356E"/>
			<stop  offset="0.9534" style="stop-color:#262C5E"/>
			<stop  offset="1" style="stop-color:#242A5A"/>
		</linearGradient>
		<path fill="url(#SVGID_3_)" d="M656.888,413.143h-0.621v-1.045h0.648c0.34,0,0.424,0.141,0.424,0.451
			C657.339,412.973,657.196,413.143,656.888,413.143 M658.894,414.752c-0.199,0-0.254-0.027-0.34-0.141l-0.453-0.848
			c0.51-0.225,0.764-0.65,0.764-1.271c0-1.072-0.734-1.439-1.836-1.439h-1.916h-0.145h-0.227v2.168v2.578h0.371h1.154v-1.695h0.477
			l0.541,1.129c0.254,0.51,0.59,0.621,1.102,0.621c0.225,0,0.367-0.027,0.648-0.055v-1.047H658.894z"/>
		<linearGradient id="SVGID_4_" gradientUnits="userSpaceOnUse" x1="651.5186" y1="413.3965" x2="662.001" y2="413.3965">
			<stop  offset="0" style="stop-color:#313E83"/>
			<stop  offset="0.3168" style="stop-color:#303D80"/>
			<stop  offset="0.5521" style="stop-color:#2E3A7A"/>
			<stop  offset="0.7609" style="stop-color:#2B356E"/>
			<stop  offset="0.9534" style="stop-color:#262C5E"/>
			<stop  offset="1" style="stop-color:#242A5A"/>
		</linearGradient>
		<path fill="url(#SVGID_4_)" d="M656.802,417.465c-0.648,0-1.211-0.1-1.689-0.289c-0.506-0.197-0.914-0.494-1.234-0.873
			c-0.604-0.707-0.893-1.699-0.893-2.877c0-1.84,0.627-3.143,1.963-3.725c0.057-0.025,0.105-0.049,0.164-0.07
			c0.479-0.18,1.041-0.273,1.689-0.273c2.402,0,3.729,1.496,3.729,4.068C660.53,415.996,659.315,417.465,656.802,417.465
			 M656.772,408.057c-0.59,0-1.148,0.084-1.66,0.236c-0.1,0.031-0.197,0.068-0.295,0.104c-2.027,0.742-3.299,2.645-3.299,5.029
			c0,1.732,0.658,3.209,1.812,4.162c0.506,0.414,1.104,0.732,1.781,0.924c0.51,0.146,1.064,0.225,1.66,0.225
			c3.195,0,5.229-2.26,5.229-5.311C662.001,410.232,659.854,408.057,656.772,408.057"/>
	</g>
</g>
</svg>
