<?xml version="1.0" encoding="utf-8"?>
<!-- Generator: Adobe Illustrator 16.0.0, SVG Export Plug-In . SVG Version: 6.00 Build 0)  -->
<!DOCTYPE svg PUBLIC "-//W3C//DTD SVG 1.1//EN" "http://www.w3.org/Graphics/SVG/1.1/DTD/svg11.dtd">
<svg version="1.1" id="Calque_1" xmlns="http://www.w3.org/2000/svg" xmlns:xlink="http://www.w3.org/1999/xlink" x="0px" y="0px"
	 width="841.89px" height="595.28px" viewBox="0 0 841.89 595.28" enable-background="new 0 0 841.89 595.28" xml:space="preserve">
<g>
	<path fill="#FFFFFF" d="M421.5,289.031c-5.061,0-9.178,4.117-9.178,9.178s4.117,9.178,9.178,9.178s9.178-4.117,9.178-9.178
		S426.561,289.031,421.5,289.031z M421.5,304.327c-3.373,0-6.118-2.745-6.118-6.118s2.745-6.118,6.118-6.118
		s6.119,2.745,6.119,6.118S424.873,304.327,421.5,304.327z"/>
	<path fill="#FFFFFF" d="M455.15,296.68h-15.295c-0.845,0-1.529,0.686-1.529,1.529s0.685,1.529,1.529,1.529h15.295
		c0.846,0,1.53-0.686,1.53-1.529S455.996,296.68,455.15,296.68z"/>
	<path fill="#FFFFFF" d="M433.398,286.311c-0.598-0.597-0.598-1.564,0-2.162l10.815-10.816c0.597-0.597,1.565-0.597,2.163,0
		c0.598,0.598,0.598,1.566,0,2.163l-10.816,10.815c-0.299,0.3-0.689,0.449-1.081,0.449S433.696,286.61,433.398,286.311z"/>
	<path fill="#FFFFFF" d="M421.5,281.384c0.845,0,1.529-0.686,1.529-1.53v-15.295c0-0.845-0.685-1.53-1.529-1.53
		c-0.844,0-1.529,0.686-1.529,1.53v15.295C419.971,280.698,420.656,281.384,421.5,281.384z"/>
	<path fill="#FFFFFF" d="M409.603,284.148c0.597,0.598,0.597,1.565,0,2.162c-0.3,0.3-0.69,0.449-1.081,0.449
		c-0.393,0-0.783-0.149-1.082-0.449l-10.814-10.815c-0.598-0.597-0.598-1.565,0-2.163c0.598-0.597,1.565-0.597,2.162,0
		L409.603,284.148z"/>
	<path fill="#FFFFFF" d="M404.675,298.209c0-0.844-0.685-1.529-1.529-1.529H387.85c-0.844,0-1.529,0.686-1.529,1.529
		s0.686,1.529,1.529,1.529h15.296C403.99,299.738,404.675,299.053,404.675,298.209z"/>
	<path fill="#FFFFFF" d="M409.603,310.106c0.597,0.598,0.597,1.565,0,2.163l-10.815,10.814c-0.299,0.3-0.689,0.449-1.081,0.449
		s-0.782-0.149-1.081-0.449c-0.598-0.597-0.598-1.564,0-2.162l10.815-10.816C408.037,309.509,409.006,309.509,409.603,310.106z"/>
	<path fill="#FFFFFF" d="M421.5,315.034c-0.844,0-1.529,0.686-1.529,1.53v15.295c0,0.845,0.686,1.53,1.529,1.53
		c0.845,0,1.529-0.686,1.529-1.53v-15.295C423.029,315.72,422.345,315.034,421.5,315.034z"/>
	<path fill="#FFFFFF" d="M446.376,320.922c0.597,0.598,0.597,1.565,0,2.162c-0.3,0.3-0.69,0.449-1.081,0.449
		c-0.393,0-0.783-0.149-1.082-0.449l-10.814-10.814c-0.598-0.598-0.598-1.565,0-2.163c0.598-0.597,1.564-0.597,2.162,0
		L446.376,320.922z"/>
</g>
</svg>
